<svg width="216" height="64" viewBox="0 0 216 64" fill="none" xmlns="http://www.w3.org/2000/svg">
    <g clip-path="url(#clip0)">
        <path d="M1.94609 0H0V56.4147H1.94609V0Z" fill="white"/>
        <path d="M3.89184 0H2.91879V56.4147H3.89184V0Z" fill="white"/>
        <path d="M6.81096 0H5.83792V56.4147H6.81096V0Z" fill="white"/>
        <path d="M11.6758 0H10.7027V56.4147H11.6758V0Z" fill="white"/>
        <path d="M13.6218 0H12.6488V56.4147H13.6218V0Z" fill="white"/>
        <path d="M18.4867 0H16.5406V56.4147H18.4867V0Z" fill="white"/>
        <path d="M23.3516 0H21.4055V56.4147H23.3516V0Z" fill="white"/>
        <path d="M28.2165 0H27.2434V56.4147H28.2165V0Z" fill="white"/>
        <path d="M30.1625 0H29.1894V56.4147H30.1625V0Z" fill="white"/>
        <path d="M33.0812 0H32.1082V56.4147H33.0812V0Z" fill="white"/>
        <path d="M36.9734 0H35.0273V56.4147H36.9734V0Z" fill="white"/>
        <path d="M41.8383 0H40.8653V56.4147H41.8383V0Z" fill="white"/>
        <path d="M44.7574 0H42.8113V56.4147H44.7574V0Z" fill="white"/>
        <path d="M47.6762 0H45.7301V56.4147H47.6762V0Z" fill="white"/>
        <path d="M51.5678 0H49.6218V56.4147H51.5678V0Z" fill="white"/>
        <path d="M55.4602 0H53.5141V56.4147H55.4602V0Z" fill="white"/>
        <path d="M58.3789 0H56.4328V56.4147H58.3789V0Z" fill="white"/>
        <path d="M63.2438 0H59.352V56.4147H63.2438V0Z" fill="white"/>
        <path d="M65.1898 0H64.2168V56.4147H65.1898V0Z" fill="white"/>
        <path d="M68.109 0H66.1629V56.4147H68.109V0Z" fill="white"/>
        <path d="M71.0277 0H70.0547V56.4147H71.0277V0Z" fill="white"/>
        <path d="M75.8926 0H74.9196V56.4147H75.8926V0Z" fill="white"/>
        <path d="M81.7305 0H77.8387V56.4147H81.7305V0Z" fill="white"/>
        <path d="M84.6495 0H83.6764V56.4147H84.6495V0Z" fill="white"/>
        <path d="M87.5683 0H85.6223V56.4147H87.5683V0Z" fill="white"/>
        <path d="M90.4875 0H88.5414V56.4147H90.4875V0Z" fill="white"/>
        <path d="M94.3792 0H92.4331V56.4147H94.3792V0Z" fill="white"/>
        <path d="M97.298 0H96.325V56.4147H97.298V0Z" fill="white"/>
        <path d="M100.217 0H98.2711V56.4147H100.217V0Z" fill="white"/>
        <path d="M103.136 0H102.163V56.4147H103.136V0Z" fill="white"/>
        <path d="M110.92 0H107.028V56.4147H110.92V0Z" fill="white"/>
        <path d="M114.812 0H111.893V56.4147H114.812V0Z" fill="white"/>
        <path d="M116.758 0H115.785V56.4147H116.758V0Z" fill="white"/>
        <path d="M119.677 0H117.731V56.4147H119.677V0Z" fill="white"/>
        <path d="M122.596 0H120.65V56.4147H122.596V0Z" fill="white"/>
        <path d="M126.488 0H124.542V56.4147H126.488V0Z" fill="white"/>
        <path d="M129.407 0H128.434V56.4147H129.407V0Z" fill="white"/>
        <path d="M134.271 0H133.298V56.4147H134.271V0Z" fill="white"/>
        <path d="M138.164 0H136.218V56.4147H138.164V0Z" fill="white"/>
        <path d="M140.109 0H139.136V56.4147H140.109V0Z" fill="white"/>
        <path d="M146.92 0H143.028V56.4147H146.92V0Z" fill="white"/>
        <path d="M148.866 0H147.893V56.4147H148.866V0Z" fill="white"/>
        <path d="M151.785 0H149.839V56.4147H151.785V0Z" fill="white"/>
        <path d="M154.704 0H152.758V56.4147H154.704V0Z" fill="white"/>
        <path d="M158.596 0H156.65V56.4147H158.596V0Z" fill="white"/>
        <path d="M161.515 0H160.542V56.4147H161.515V0Z" fill="white"/>
        <path d="M167.353 0H163.461V56.4147H167.353V0Z" fill="white"/>
        <path d="M169.299 0H168.326V56.4147H169.299V0Z" fill="white"/>
        <path d="M172.218 0H171.245V56.4147H172.218V0Z" fill="white"/>
        <path d="M179.028 0H175.137V56.4147H179.028V0Z" fill="white"/>
        <path d="M180.974 0H180.001V56.4147H180.974V0Z" fill="white"/>
        <path d="M182.921 0H181.948V56.4147H182.921V0Z" fill="white"/>
        <path d="M188.759 0H186.812V56.4147H188.759V0Z" fill="white"/>
        <path d="M190.704 0H189.731V56.4147H190.704V0Z" fill="white"/>
        <path d="M194.596 0H192.65V56.4147H194.596V0Z" fill="white"/>
        <path d="M198.488 0H196.542V56.4147H198.488V0Z" fill="white"/>
        <path d="M201.407 0H199.461V56.4147H201.407V0Z" fill="white"/>
        <path d="M205.299 0H203.353V56.4147H205.299V0Z" fill="white"/>
        <path d="M211.137 0H208.218V56.4147H211.137V0Z" fill="white"/>
        <path d="M213.083 0H212.11V56.4147H213.083V0Z" fill="white"/>
        <path d="M216.002 0H214.056V56.4147H216.002V0Z" fill="white"/>
    </g>
    <defs>
        <clipPath id="clip0">
            <rect width="216" height="64" fill="white"/>
        </clipPath>
    </defs>
</svg>
