<svg width="20" height="20" viewBox="0 0 20 20" fill="none" xmlns="http://www.w3.org/2000/svg">
    <path fill-rule="evenodd" clip-rule="evenodd" d="M10 0.833252C15.0626 0.833252 19.1667 4.93732 19.1667 9.99992C19.1667 15.0625 15.0626 19.1666 10 19.1666C4.93744 19.1666 0.833374 15.0625 0.833374 9.99992C0.833374 4.93732 4.93744 0.833252 10 0.833252Z" fill="white"/>
    <path fill-rule="evenodd" clip-rule="evenodd" d="M12.7959 10.4278C12.1277 11.1483 10.309 12.3675 9.3786 12.7589C9.2301 12.8212 8.85152 12.9532 8.76993 12.9551C8.59668 12.9606 8.42985 12.8634 8.34918 12.7076C8.31802 12.6471 8.22635 12.252 8.19702 12.076C8.10993 11.5406 8.06502 10.7092 8.06593 9.87322C8.06502 8.99597 8.1136 8.12514 8.21077 7.59531C8.23643 7.45231 8.3116 7.12322 8.3336 7.07006C8.37485 6.97106 8.45002 6.89314 8.54077 6.84456C8.61043 6.80697 8.69018 6.78681 8.76993 6.78956C8.85152 6.79139 9.18335 6.90781 9.29702 6.95272C10.1935 7.30106 12.0901 8.56422 12.7868 9.30672C12.8491 9.37364 13.0205 9.55331 13.0489 9.58997C13.114 9.67247 13.1461 9.77239 13.1461 9.87322C13.1461 9.96672 13.1177 10.0621 13.059 10.1418C13.0288 10.1831 12.8537 10.3664 12.7959 10.4278Z" fill="#00C7CC"/>
</svg>
