<svg width="18" height="20" viewBox="0 0 18 20" fill="none" xmlns="http://www.w3.org/2000/svg">
    <path fill-rule="evenodd" clip-rule="evenodd" d="M6.3942 18.0406V15.2294C6.39418 14.5144 6.97711 13.9334 7.69934 13.9286H10.3449C11.0706 13.9286 11.6589 14.511 11.6589 15.2294V18.0493C11.6587 18.6564 12.1481 19.1526 12.7612 19.1668H14.5249C16.2831 19.1668 17.7084 17.7558 17.7084 16.0152V8.01818C17.699 7.33342 17.3743 6.6904 16.8266 6.27211L10.7947 1.46169C9.73794 0.624098 8.23577 0.624098 7.17905 1.46169L1.1736 6.28084C0.623818 6.69743 0.298519 7.34152 0.291748 8.02691V16.0152C0.291748 17.7558 1.71705 19.1668 3.47525 19.1668H5.23896C5.86724 19.1668 6.37656 18.6626 6.37656 18.0406" fill="white"/>
</svg>
