<svg width="20" height="20" viewBox="0 0 20 20" fill="none" xmlns="http://www.w3.org/2000/svg">
    <path fill-rule="evenodd" clip-rule="evenodd" d="M7.39346 18.0404V15.2292C7.39345 14.5142 7.97637 13.9332 8.69861 13.9284H11.3442C12.0699 13.9284 12.6581 14.5108 12.6581 15.2292V18.0491C12.658 18.6562 13.1474 19.1524 13.7605 19.1666H15.5242C17.2824 19.1666 18.7077 17.7555 18.7077 16.0149V8.01794C18.6983 7.33318 18.3735 6.69016 17.8258 6.27187L11.7939 1.46144C10.7372 0.623854 9.23504 0.623854 8.17831 1.46144L2.17287 6.2806C1.62309 6.69719 1.29779 7.34128 1.29102 8.02667V16.0149C1.29102 17.7555 2.71632 19.1666 4.47452 19.1666H6.23823C6.86651 19.1666 7.37583 18.6624 7.37583 18.0404" fill="white"/>
    <path d="M7.39346 18.0404V15.2292C7.39345 14.5142 7.97637 13.9332 8.69861 13.9284H11.3442C12.0699 13.9284 12.6581 14.5108 12.6581 15.2292V15.2292V18.0491C12.658 18.6562 13.1474 19.1524 13.7605 19.1666H15.5242C17.2824 19.1666 18.7077 17.7555 18.7077 16.0149V16.0149V8.01794C18.6983 7.33318 18.3735 6.69016 17.8258 6.27187L11.7939 1.46144C10.7372 0.623854 9.23504 0.623854 8.17831 1.46144L2.17287 6.2806C1.62309 6.69719 1.29779 7.34128 1.29102 8.02667V16.0149C1.29102 17.7555 2.71632 19.1666 4.47452 19.1666H6.23823C6.86651 19.1666 7.37583 18.6624 7.37583 18.0404V18.0404" stroke="url(#paint0_linear)" stroke-width="1.5" stroke-linecap="round" stroke-linejoin="round"/>
    <defs>
        <linearGradient id="paint0_linear" x1="9.99935" y1="0.833252" x2="9.99935" y2="19.1666" gradientUnits="userSpaceOnUse">
            <stop stop-color="#00C7CC"/>
            <stop offset="1" stop-color="#2E499C"/>
        </linearGradient>
    </defs>
</svg>
