<svg width="16" height="20" viewBox="0 0 16 20" fill="none" xmlns="http://www.w3.org/2000/svg">
    <path fill-rule="evenodd" clip-rule="evenodd" d="M14.1482 7.0633C14.1482 8.21457 14.4524 8.89314 15.1221 9.67512C15.6295 10.2512 15.7917 10.9907 15.7917 11.793C15.7917 12.5944 15.5284 13.3551 15.0009 13.9728C14.3103 14.7132 13.3364 15.1859 12.3425 15.2681C10.9021 15.3909 9.46085 15.4943 8.00046 15.4943C6.53915 15.4943 5.09879 15.4324 3.65844 15.2681C2.66359 15.1859 1.68968 14.7132 1.00003 13.9728C0.472535 13.3551 0.208334 12.5944 0.208334 11.793C0.208334 10.9907 0.37141 10.2512 0.877948 9.67512C1.56852 8.89314 1.85276 8.21457 1.85276 7.0633V6.67277C1.85276 5.13097 2.23722 4.1228 3.02891 3.13587C4.20598 1.69655 6.09274 0.833328 7.95946 0.833328H8.04145C9.94826 0.833328 11.8961 1.7381 13.0531 3.23927C13.8038 4.20589 14.1482 5.1716 14.1482 6.67277V7.0633ZM5.31753 17.3891C5.31753 16.9275 5.74117 16.7161 6.13291 16.6256C6.59117 16.5286 9.3835 16.5286 9.84175 16.6256C10.2335 16.7161 10.6571 16.9275 10.6571 17.3891C10.6344 17.8286 10.3765 18.2182 10.0203 18.4656C9.55842 18.8256 9.01635 19.0537 8.44969 19.1359C8.13629 19.1765 7.82836 19.1774 7.52589 19.1359C6.95831 19.0537 6.41625 18.8256 5.95526 18.4647C5.59813 18.2182 5.34031 17.8286 5.31753 17.3891Z" fill="white"/>
</svg>
