<svg width="18" height="20" viewBox="0 0 18 20" fill="none" xmlns="http://www.w3.org/2000/svg">
    <path fill-rule="evenodd" clip-rule="evenodd" d="M1.20974 11.6381V11.4374C1.23919 10.8435 1.42953 10.268 1.76114 9.77039C2.31311 9.17259 2.69096 8.44003 2.85506 7.64956C2.85506 7.03863 2.85506 6.41896 2.90842 5.80803C3.18412 2.8668 6.09232 0.833252 8.96495 0.833252H9.0361C11.9087 0.833252 14.8169 2.8668 15.1015 5.80803C15.1549 6.41896 15.1015 7.03863 15.146 7.64956C15.3123 8.44186 15.6898 9.1767 16.2399 9.77912C16.574 10.2724 16.7646 10.8457 16.7913 11.4374V11.6294C16.8112 12.4273 16.5364 13.2053 16.0176 13.82C15.332 14.5388 14.4018 14.9859 13.4029 15.0768C10.4737 15.391 7.51843 15.391 4.58931 15.0768C3.59153 14.982 2.6626 14.5355 1.97459 13.82C1.46382 13.2049 1.1927 12.4315 1.20974 11.6381Z" stroke="url(#paint0_linear)" stroke-width="1.5" stroke-linecap="round" stroke-linejoin="round"/>
    <path d="M6.75977 18.114C7.21743 18.6885 7.88952 19.0602 8.62728 19.1471C9.36505 19.2339 10.1076 19.0286 10.6907 18.5766C10.8701 18.4429 11.0314 18.2875 11.171 18.114" stroke="url(#paint1_linear)" stroke-width="1.5" stroke-linecap="round" stroke-linejoin="round"/>
    <defs>
        <linearGradient id="paint0_linear" x1="9.00065" y1="0.833252" x2="9.00065" y2="15.3125" gradientUnits="userSpaceOnUse">
            <stop stop-color="#00C7CC"/>
            <stop offset="1" stop-color="#2E499C"/>
        </linearGradient>
        <linearGradient id="paint1_linear" x1="8.96538" y1="18.114" x2="8.96538" y2="19.1666" gradientUnits="userSpaceOnUse">
            <stop stop-color="#00C7CC"/>
            <stop offset="1" stop-color="#2E499C"/>
        </linearGradient>
    </defs>
</svg>
