<svg width="20" height="20" viewBox="0 0 20 20" fill="none" xmlns="http://www.w3.org/2000/svg">
    <path fill-rule="evenodd" clip-rule="evenodd" d="M10.0007 0.833252C15.0633 0.833252 19.1673 4.93732 19.1673 9.99992C19.1673 15.0625 15.0633 19.1666 10.0007 19.1666C4.93805 19.1666 0.833984 15.0625 0.833984 9.99992C0.833984 4.93732 4.93805 0.833252 10.0007 0.833252Z" stroke="url(#paint0_linear)" stroke-width="1.5" stroke-linecap="round" stroke-linejoin="round"/>
    <path fill-rule="evenodd" clip-rule="evenodd" d="M12.7964 10.4278C12.1282 11.1483 10.3095 12.3675 9.37909 12.7589C9.23059 12.8212 8.852 12.9532 8.77042 12.9551C8.59717 12.9606 8.43034 12.8634 8.34967 12.7076C8.3185 12.6471 8.22684 12.252 8.1975 12.076C8.11042 11.5406 8.0655 10.7092 8.06642 9.87322C8.0655 8.99597 8.11409 8.12514 8.21125 7.59531C8.23692 7.45231 8.31209 7.12322 8.33409 7.07006C8.37534 6.97106 8.4505 6.89314 8.54125 6.84456C8.61092 6.80697 8.69067 6.78681 8.77042 6.78956C8.852 6.79139 9.18384 6.90781 9.2975 6.95272C10.194 7.30106 12.0906 8.56422 12.7873 9.30672C12.8496 9.37364 13.021 9.55331 13.0494 9.58997C13.1145 9.67247 13.1466 9.77239 13.1466 9.87322C13.1466 9.96672 13.1182 10.0621 13.0595 10.1418C13.0293 10.1831 12.8542 10.3664 12.7964 10.4278Z" stroke="url(#paint1_linear)" stroke-width="1.5" stroke-linecap="round" stroke-linejoin="round"/>
    <defs>
        <linearGradient id="paint0_linear" x1="10.0007" y1="0.833252" x2="10.0007" y2="19.1666" gradientUnits="userSpaceOnUse">
            <stop stop-color="#00C7CC"/>
            <stop offset="1" stop-color="#2E499C"/>
        </linearGradient>
        <linearGradient id="paint1_linear" x1="10.6065" y1="6.78931" x2="10.6065" y2="12.9553" gradientUnits="userSpaceOnUse">
            <stop stop-color="#00C7CC"/>
            <stop offset="1" stop-color="#2E499C"/>
        </linearGradient>
    </defs>
</svg>
