<svg width="17" height="20" viewBox="0 0 17 20" fill="none" xmlns="http://www.w3.org/2000/svg">
    <ellipse cx="8.61399" cy="5.67137" rx="4.37986" ry="4.37986" stroke="url(#paint0_linear)" stroke-width="1.5" stroke-linecap="round" stroke-linejoin="round"/>
    <path fill-rule="evenodd" clip-rule="evenodd" d="M1.66676 16.1426C1.66559 15.8347 1.73445 15.5306 1.86814 15.2532C2.28766 14.4142 3.47073 13.9695 4.45242 13.7681C5.16042 13.617 5.87819 13.5161 6.6004 13.466C7.93752 13.3486 9.28236 13.3486 10.6195 13.466C11.3416 13.5166 12.0594 13.6176 12.7674 13.7681C13.7491 13.9695 14.9322 14.3722 15.3517 15.2532C15.6206 15.8186 15.6206 16.475 15.3517 17.0404C14.9322 17.9214 13.7491 18.3241 12.7674 18.5171C12.0603 18.6745 11.3423 18.7782 10.6195 18.8276C9.53117 18.9198 8.43779 18.9367 7.34716 18.8779C7.09544 18.8779 6.85212 18.8779 6.6004 18.8276C5.88033 18.7789 5.16504 18.6751 4.46081 18.5171C3.47073 18.3241 2.29605 17.9214 1.86814 17.0404C1.73513 16.7598 1.66634 16.4531 1.66676 16.1426Z" stroke="url(#paint1_linear)" stroke-width="1.5" stroke-linecap="round" stroke-linejoin="round"/>
    <defs>
        <linearGradient id="paint0_linear" x1="8.61399" y1="1.2915" x2="8.61399" y2="10.0512" gradientUnits="userSpaceOnUse">
            <stop stop-color="#00C7CC"/>
            <stop offset="1" stop-color="#2E499C"/>
        </linearGradient>
        <linearGradient id="paint1_linear" x1="8.61006" y1="13.3779" x2="8.61006" y2="18.9122" gradientUnits="userSpaceOnUse">
            <stop stop-color="#00C7CC"/>
            <stop offset="1" stop-color="#2E499C"/>
        </linearGradient>
    </defs>
</svg>
