<svg width="18" height="20" viewBox="0 0 18 20" fill="none" xmlns="http://www.w3.org/2000/svg">
    <path fill-rule="evenodd" clip-rule="evenodd" d="M13.9303 5C13.9621 4.92913 13.977 4.85189 13.9739 4.77432H14C13.8882 2.10591 11.6849 0 9.00494 0C6.325 0 4.12172 2.10591 4.00989 4.77432C3.9967 4.84898 3.9967 4.92535 4.00989 5H3.93171C2.65022 5 1.28034 5.84597 0.882639 8.12007L0.104905 14.3147C-0.531424 18.8629 1.81062 20 4.86853 20H13.1585C16.2075 20 18.4789 18.3535 17.9133 14.3147L17.1444 8.12007C16.676 5.90964 15.3503 5 14.0865 5H13.9303ZM12.4932 5C12.4654 4.92794 12.4506 4.85153 12.4497 4.77432C12.4497 2.85682 10.8899 1.30238 8.96575 1.30238C7.04164 1.30238 5.48184 2.85682 5.48184 4.77432C5.49502 4.84898 5.49502 4.92535 5.48184 5H12.4932ZM6.097 10.1486C5.60889 10.1486 5.21321 9.74131 5.21321 9.23893C5.21321 8.73655 5.60889 8.32929 6.097 8.32929C6.5851 8.32929 6.98079 8.73655 6.98079 9.23893C6.98079 9.74131 6.5851 10.1486 6.097 10.1486ZM11.002 9.23893C11.002 9.74131 11.3977 10.1486 11.8858 10.1486C12.3739 10.1486 12.7696 9.74131 12.7696 9.23893C12.7696 8.73655 12.3739 8.32929 11.8858 8.32929C11.3977 8.32929 11.002 8.73655 11.002 9.23893Z" fill="white"/>
</svg>
