<svg width="16" height="16" viewBox="0 0 16 16" fill="none" xmlns="http://www.w3.org/2000/svg">
    <path fill-rule="evenodd" clip-rule="evenodd" d="M8.00004 12.6667C5.40004 12.6667 3.33337 10.6 3.33337 8.00001C3.33337 5.40001 5.40004 3.33334 8.00004 3.33334C10.6 3.33334 12.6667 5.40001 12.6667 8.00001C12.6667 10.6 10.6 12.6667 8.00004 12.6667ZM8.00004 11.3333C9.86671 11.3333 11.3334 9.86668 11.3334 8.00001C11.3334 6.13334 9.86671 4.66668 8.00004 4.66668C6.13337 4.66668 4.66671 6.13334 4.66671 8.00001C4.66671 9.86668 6.13337 11.3333 8.00004 11.3333Z" fill="white"/>
    <path d="M7.99996 9.33332C8.73634 9.33332 9.33329 8.73637 9.33329 7.99999C9.33329 7.26361 8.73634 6.66666 7.99996 6.66666C7.26358 6.66666 6.66663 7.26361 6.66663 7.99999C6.66663 8.73637 7.26358 9.33332 7.99996 9.33332Z" fill="white"/>
    <path d="M13.3334 4.66666C14.4379 4.66666 15.3334 3.77123 15.3334 2.66666C15.3334 1.56209 14.4379 0.666656 13.3334 0.666656C12.2288 0.666656 11.3334 1.56209 11.3334 2.66666C11.3334 3.77123 12.2288 4.66666 13.3334 4.66666Z" fill="white"/>
    <path d="M15.4667 5.2C15.1333 5.46667 14.7333 5.73333 14.2667 5.86667C14.5333 6.53333 14.6 7.26667 14.6 8C14.6 11.6667 11.6 14.6667 7.93333 14.6667C4.26667 14.6667 1.33333 11.6667 1.33333 8C1.33333 4.33333 4.33333 1.33333 8 1.33333C8.73333 1.33333 9.46667 1.46667 10.1333 1.66667C10.2667 1.2 10.4667 0.8 10.8 0.466667C9.93333 0.2 9 0 8 0C3.6 0 0 3.6 0 8C0 12.4 3.6 16 8 16C12.4 16 16 12.4 16 8C16 7 15.8 6.06667 15.4667 5.2Z" fill="white"/>
</svg>
