<svg width="14" height="16" viewBox="0 0 14 16" fill="none" xmlns="http://www.w3.org/2000/svg">
    <path fill-rule="evenodd" clip-rule="evenodd" d="M11.142 4.547V5.69701C12.4338 6.10022 13.375 7.2696 13.375 8.6663V12.369C13.375 14.0981 11.9415 15.5 10.1742 15.5H3.8266C2.05852 15.5 0.625 14.0981 0.625 12.369V8.6663C0.625 7.2696 1.56696 6.10022 2.85796 5.69701V4.547C2.86559 2.31109 4.7175 0.5 6.98857 0.5C9.29012 0.5 11.142 2.31109 11.142 4.547ZM7.00385 1.80429C8.55092 1.80429 9.80839 3.03404 9.80839 4.54701V5.53529H4.19169V4.53211C4.19931 3.02659 5.45678 1.80429 7.00385 1.80429ZM7.66685 11.3412C7.66685 11.7064 7.36963 11.9971 6.9962 11.9971C6.63039 11.9971 6.33317 11.7064 6.33317 11.3412V9.68662C6.33317 9.32888 6.63039 9.03821 6.9962 9.03821C7.36963 9.03821 7.66685 9.32888 7.66685 9.68662V11.3412Z" fill="white"/>
</svg>
