<svg width="18" height="18" viewBox="0 0 18 18" fill="none" xmlns="http://www.w3.org/2000/svg">
    <path fill-rule="evenodd" clip-rule="evenodd" d="M0 8.98434C0 4.03031 4.03041 0 8.98434 0C13.9384 0 17.9687 4.03031 17.9687 8.98434C17.9687 13.9384 13.9383 17.9688 8.98434 17.9688C4.03041 17.9688 0 13.9384 0 8.98434ZM8.49891 13.1112L14.1433 7.46682C14.6387 6.97144 14.6387 6.16548 14.1431 5.66991C13.9031 5.42991 13.5841 5.29782 13.2447 5.29782C12.9053 5.29782 12.5863 5.42991 12.3463 5.66991L7.60041 10.4158L5.62219 8.43769C5.38228 8.1976 5.06316 8.06541 4.72378 8.06541C4.38431 8.06541 4.06528 8.1976 3.82538 8.4376C3.58538 8.6776 3.45319 8.99663 3.45319 9.3361C3.45319 9.67548 3.58538 9.99451 3.82538 10.2345L6.70209 13.1112C6.94209 13.3512 7.26113 13.4833 7.6005 13.4833C7.93988 13.4833 8.25891 13.3512 8.49891 13.1112Z" fill="url(#paint0_linear)"/>
    <defs>
        <linearGradient id="paint0_linear" x1="-1.05113e-08" y1="8.55655" x2="17.9687" y2="8.55655" gradientUnits="userSpaceOnUse">
            <stop stop-color="#2E499C"/>
            <stop offset="1" stop-color="#00C7CC"/>
        </linearGradient>
    </defs>
</svg>
