<svg width="25" height="18" viewBox="0 0 25 18" fill="none" xmlns="http://www.w3.org/2000/svg">
    <path fill-rule="evenodd" clip-rule="evenodd" d="M12.2755 3.66071C15.8375 3.66087 19.2632 5.02952 21.8447 7.48378C22.0391 7.67326 22.3498 7.67087 22.5413 7.47842L24.3995 5.60306C24.4965 5.50545 24.5505 5.37323 24.5497 5.23566C24.5489 5.0981 24.4933 4.96652 24.3952 4.87005C17.6196 -1.62335 6.93035 -1.62335 0.154754 4.87005C0.0566049 4.96645 0.000916242 5.09799 1.1205e-05 5.23555C-0.000893832 5.37312 0.0530593 5.50538 0.149932 5.60306L2.00869 7.47842C2.20002 7.67116 2.51098 7.67355 2.70526 7.48378C5.28708 5.02936 8.71322 3.6607 12.2755 3.66071ZM12.2755 9.76208C14.2326 9.76196 16.1198 10.4894 17.5705 11.803C17.7667 11.9895 18.0758 11.9854 18.267 11.7939L20.1231 9.91854C20.2209 9.82017 20.2751 9.68673 20.2737 9.54806C20.2723 9.40939 20.2153 9.27708 20.1156 9.18072C15.698 5.07144 8.85675 5.07144 4.43914 9.18072C4.33935 9.27708 4.28242 9.40946 4.28111 9.54817C4.2798 9.68688 4.33422 9.82031 4.43217 9.91854L6.28771 11.7939C6.47898 11.9854 6.78807 11.9895 6.98428 11.803C8.434 10.4903 10.3197 9.76289 12.2755 9.76208ZM15.9936 13.8672C15.9964 14.0063 15.9417 14.1404 15.8425 14.2378L12.6318 17.4779C12.5377 17.5731 12.4094 17.6267 12.2755 17.6267C12.1416 17.6267 12.0133 17.5731 11.9192 17.4779L8.70804 14.2378C8.60884 14.1403 8.55427 14.0062 8.55721 13.8671C8.56015 13.7281 8.62034 13.5964 8.72357 13.5032C10.774 11.7689 13.777 11.7689 15.8275 13.5032C15.9306 13.5965 15.9907 13.7282 15.9936 13.8672Z" fill="white"/>
</svg>
