<svg width="24" height="24" viewBox="0 0 24 24" fill="none" xmlns="http://www.w3.org/2000/svg">
    <path d="M7.86 11.0601C7.76534 10.9662 7.7121 10.8384 7.7121 10.7051C7.7121 10.5717 7.76534 10.4439 7.86 10.3501L8.06 10.1501C8.15407 10.0524 8.28441 9.99809 8.42 10.0001H15.58C15.7156 9.99809 15.8459 10.0524 15.94 10.1501L16.14 10.3501C16.2347 10.4439 16.2879 10.5717 16.2879 10.7051C16.2879 10.8384 16.2347 10.9662 16.14 11.0601L12.35 14.8501C12.2593 14.9467 12.1326 15.0016 12 15.0016C11.8674 15.0016 11.7407 14.9467 11.65 14.8501L7.86 11.0601Z" fill="#828282"/>
</svg>
