<svg width="36" height="38" viewBox="0 0 36 38" fill="none" xmlns="http://www.w3.org/2000/svg">
    <g filter="url(#filter0_d)">
        <path fill-rule="evenodd" clip-rule="evenodd" d="M4.66669 16.0001C4.66669 8.63628 10.6362 2.66675 18 2.66675C21.5362 2.66675 24.9276 4.07151 27.4281 6.57199C29.9286 9.07248 31.3334 12.4639 31.3334 16.0001C31.3334 23.3639 25.3638 29.3334 18 29.3334C10.6362 29.3334 4.66669 23.3639 4.66669 16.0001ZM22.322 18.9468C22.322 18.7701 22.2489 18.6012 22.12 18.4802L19.6534 16.0002L22.12 13.5202C22.2489 13.3992 22.322 13.2303 22.322 13.0535C22.322 12.8767 22.2489 12.7078 22.12 12.5869L21.4134 11.8802C21.2924 11.7513 21.1235 11.6782 20.9467 11.6782C20.7699 11.6782 20.601 11.7513 20.48 11.8802L18 14.3469L15.52 11.8802C15.399 11.7513 15.2301 11.6782 15.0534 11.6782C14.8766 11.6782 14.7077 11.7513 14.5867 11.8802L13.88 12.5869C13.7511 12.7078 13.678 12.8767 13.678 13.0535C13.678 13.2303 13.7511 13.3992 13.88 13.5202L16.3467 16.0002L13.88 18.4802C13.7511 18.6012 13.678 18.7701 13.678 18.9468C13.678 19.1236 13.7511 19.2925 13.88 19.4135L14.5867 20.1202C14.7077 20.2491 14.8766 20.3222 15.0534 20.3222C15.2301 20.3222 15.399 20.2491 15.52 20.1202L18 17.6535L20.48 20.1202C20.601 20.2491 20.7699 20.3222 20.9467 20.3222C21.1235 20.3222 21.2924 20.2491 21.4134 20.1202L22.12 19.4135C22.2489 19.2925 22.322 19.1236 22.322 18.9468Z" fill="#0E52E1"/>
    </g>
    <defs>
        <filter id="filter0_d" x="-2" y="0" width="40" height="40" filterUnits="userSpaceOnUse" color-interpolation-filters="sRGB">
            <feFlood flood-opacity="0" result="BackgroundImageFix"/>
            <feColorMatrix in="SourceAlpha" type="matrix" values="0 0 0 0 0 0 0 0 0 0 0 0 0 0 0 0 0 0 127 0"/>
            <feOffset dy="4"/>
            <feGaussianBlur stdDeviation="2"/>
            <feColorMatrix type="matrix" values="0 0 0 0 0 0 0 0 0 0 0 0 0 0 0 0 0 0 0.1 0"/>
            <feBlend mode="normal" in2="BackgroundImageFix" result="effect1_dropShadow"/>
            <feBlend mode="normal" in="SourceGraphic" in2="effect1_dropShadow" result="shape"/>
        </filter>
    </defs>
</svg>
