<svg width="12" height="12" viewBox="0 0 12 12" fill="none" xmlns="http://www.w3.org/2000/svg">
    <path d="M10.8925 1.94675L10.0533 1.10758C9.90968 0.954508 9.7091 0.867676 9.49917 0.867676C9.28924 0.867676 9.08867 0.954508 8.945 1.10758L6 4.03675L3.055 1.10758C2.91134 0.954508 2.71077 0.867676 2.50084 0.867676C2.29091 0.867676 2.09033 0.954508 1.94667 1.10758L1.1075 1.94675C0.954432 2.09041 0.867599 2.29099 0.867599 2.50091C0.867599 2.71084 0.954432 2.91142 1.1075 3.05508L4.03667 6.00008L1.1075 8.94508C0.954432 9.08874 0.867599 9.28932 0.867599 9.49925C0.867599 9.70917 0.954432 9.90975 1.1075 10.0534L1.94667 10.8926C2.09033 11.0457 2.29091 11.1325 2.50084 11.1325C2.71077 11.1325 2.91134 11.0457 3.055 10.8926L6 7.96341L8.945 10.8926C9.08867 11.0457 9.28924 11.1325 9.49917 11.1325C9.7091 11.1325 9.90968 11.0457 10.0533 10.8926L10.8925 10.0534C11.0456 9.90975 11.1324 9.70917 11.1324 9.49925C11.1324 9.28932 11.0456 9.08874 10.8925 8.94508L7.96334 6.00008L10.8925 3.05508C11.0456 2.91142 11.1324 2.71084 11.1324 2.50091C11.1324 2.29099 11.0456 2.09041 10.8925 1.94675V1.94675Z" fill="#C20000"/>
</svg>
