<svg width="38" height="38" viewBox="0 0 38 38" fill="none" xmlns="http://www.w3.org/2000/svg">
    <path d="M23.8925 14.9467L23.0533 14.1076C22.9097 13.9545 22.7091 13.8677 22.4992 13.8677C22.2892 13.8677 22.0887 13.9545 21.945 14.1076L19 17.0367L16.055 14.1076C15.9113 13.9545 15.7108 13.8677 15.5008 13.8677C15.2909 13.8677 15.0903 13.9545 14.9467 14.1076L14.1075 14.9467C13.9544 15.0904 13.8676 15.291 13.8676 15.5009C13.8676 15.7108 13.9544 15.9114 14.1075 16.0551L17.0367 19.0001L14.1075 21.9451C13.9544 22.0887 13.8676 22.2893 13.8676 22.4992C13.8676 22.7092 13.9544 22.9098 14.1075 23.0534L14.9467 23.8926C15.0903 24.0457 15.2909 24.1325 15.5008 24.1325C15.7108 24.1325 15.9113 24.0457 16.055 23.8926L19 20.9634L21.945 23.8926C22.0887 24.0457 22.2892 24.1325 22.4992 24.1325C22.7091 24.1325 22.9097 24.0457 23.0533 23.8926L23.8925 23.0534C24.0456 22.9098 24.1324 22.7092 24.1324 22.4992C24.1324 22.2893 24.0456 22.0887 23.8925 21.9451L20.9633 19.0001L23.8925 16.0551C24.0456 15.9114 24.1324 15.7108 24.1324 15.5009C24.1324 15.291 24.0456 15.0904 23.8925 14.9467Z" fill="#C20000"/>
</svg>
