<svg width="29" height="29" viewBox="0 0 29 29" fill="none" xmlns="http://www.w3.org/2000/svg">
    <path d="M19.9375 7.25H16.3125C15.6451 7.25 15.1041 7.79099 15.1041 8.45833V12.0833H19.9375C20.0749 12.0803 20.2053 12.1442 20.287 12.2548C20.3687 12.3653 20.3916 12.5087 20.3483 12.6392L19.4541 15.2975C19.3717 15.5415 19.1437 15.7064 18.8862 15.7083H15.1041V24.7708C15.1041 25.1045 14.8337 25.375 14.5 25.375H11.4791C11.1455 25.375 10.875 25.1045 10.875 24.7708V15.7083H9.06248C8.72881 15.7083 8.45831 15.4378 8.45831 15.1042V12.6875C8.45831 12.3538 8.72881 12.0833 9.06248 12.0833H10.875V8.45833C10.875 5.78896 13.0389 3.625 15.7083 3.625H19.9375C20.2712 3.625 20.5416 3.89549 20.5416 4.22917V6.64583C20.5416 6.97951 20.2712 7.25 19.9375 7.25Z" fill="#3D5B99"/>
</svg>
