<svg width="25" height="25" viewBox="0 0 24 24" fill="none" xmlns="http://www.w3.org/2000/svg">
<path fill-rule="evenodd" clip-rule="evenodd" d="M18.0937 16.3193L23.0937 21.3253C23.317 21.5737 23.306 21.9539 23.0687 22.1888L22.1937 23.0649C22.0764 23.1834 21.9166 23.25 21.75 23.25C21.5833 23.25 21.4236 23.1834 21.3062 23.0649L16.3062 18.0589C16.168 17.9203 16.0424 17.7695 15.9312 17.6083L14.9937 16.3568C13.4426 17.597 11.5163 18.2722 9.53125 18.2716C5.44076 18.2858 1.88628 15.4607 0.97216 11.4689C0.0580431 7.47701 2.02825 3.38373 5.71637 1.61239C9.40449 -0.158948 13.8262 0.864391 16.3637 4.07656C18.9013 7.28873 18.8774 11.8325 16.3062 15.0177L17.5562 15.8813C17.7515 16.0063 17.9318 16.1533 18.0937 16.3193ZM3.28125 9.51111C3.28125 12.967 6.07947 15.7686 9.53125 15.7686C11.1888 15.7686 12.7786 15.1094 13.9507 13.9359C15.1228 12.7623 15.7812 11.1707 15.7812 9.51111C15.7812 6.05517 12.983 3.25357 9.53125 3.25357C6.07947 3.25357 3.28125 6.05517 3.28125 9.51111Z" fill="black"/>
</svg>
