<svg width="29" height="29" viewBox="0 0 29 29" fill="none" xmlns="http://www.w3.org/2000/svg">
    <path d="M26.3483 12.1335H25.375V12.0834H14.5V16.9167H21.3289C20.3326 19.7303 17.6556 21.75 14.5 21.75C10.4962 21.75 7.25002 18.5038 7.25002 14.5C7.25002 10.4962 10.4962 7.25002 14.5 7.25002C16.3482 7.25002 18.0296 7.94723 19.3098 9.08608L22.7276 5.66831C20.5695 3.65704 17.6828 2.41669 14.5 2.41669C7.827 2.41669 2.41669 7.827 2.41669 14.5C2.41669 21.173 7.827 26.5834 14.5 26.5834C21.173 26.5834 26.5834 21.173 26.5834 14.5C26.5834 13.6898 26.5 12.899 26.3483 12.1335Z" fill="#FBC02D"/>
    <path d="M3.80988 8.87583L7.77985 11.7873C8.85406 9.12777 11.4556 7.25002 14.5 7.25002C16.3481 7.25002 18.0295 7.94723 19.3098 9.08608L22.7275 5.66831C20.5695 3.65704 17.6828 2.41669 14.5 2.41669C9.85879 2.41669 5.83383 5.03696 3.80988 8.87583Z" fill="#E53935"/>
    <path d="M14.5 26.5833C17.6212 26.5833 20.4571 25.3889 22.6013 23.4465L18.8615 20.2819C17.6484 21.2008 16.1404 21.75 14.5 21.75C11.3572 21.75 8.68857 19.746 7.68323 16.9493L3.74286 19.9852C5.74265 23.8984 9.80386 26.5833 14.5 26.5833Z" fill="#4CAF50"/>
    <path d="M26.3483 12.1335L26.3386 12.0833H25.375H14.5V16.9166H21.3289C20.8504 18.2682 19.981 19.4336 18.8597 20.2825C18.8603 20.2819 18.8609 20.2819 18.8615 20.2812L22.6013 23.4459C22.3366 23.6863 26.5833 20.5416 26.5833 14.5C26.5833 13.6898 26.5 12.8989 26.3483 12.1335Z" fill="#1565C0"/>
</svg>
