<svg width="18" height="18" viewBox="0 0 18 18" fill="none" xmlns="http://www.w3.org/2000/svg">
    <path fill-rule="evenodd" clip-rule="evenodd" d="M13.142 5.547V6.69701C14.4338 7.10022 15.375 8.2696 15.375 9.6663V13.369C15.375 15.0981 13.9415 16.5 12.1742 16.5H5.8266C4.05852 16.5 2.625 15.0981 2.625 13.369V9.6663C2.625 8.2696 3.56696 7.10022 4.85796 6.69701V5.547C4.86559 3.31109 6.7175 1.5 8.98857 1.5C11.2901 1.5 13.142 3.31109 13.142 5.547ZM9.00382 2.80429C10.5509 2.80429 11.8084 4.03404 11.8084 5.54701V6.53529H6.19166V5.53211C6.19928 4.02659 7.45675 2.80429 9.00382 2.80429ZM9.66685 12.3412C9.66685 12.7064 9.36963 12.9971 8.9962 12.9971C8.63039 12.9971 8.33317 12.7064 8.33317 12.3412V10.6866C8.33317 10.3289 8.63039 10.0382 8.9962 10.0382C9.36963 10.0382 9.66685 10.3289 9.66685 10.6866V12.3412Z" fill="#0E52E1"/>
</svg>
