<svg width="60" height="60" viewBox="0 0 60 60" fill="none" xmlns="http://www.w3.org/2000/svg">
    <path fill-rule="evenodd" clip-rule="evenodd" d="M19.043 14.4996C19.2691 14.3661 19.5273 14.2969 19.7896 14.2996C20.6134 14.3951 21.4005 14.6959 22.0792 15.1746L44.0792 27.9746C44.6486 28.3166 44.998 28.9332 45 29.5996V30.2996C44.998 30.966 44.6486 31.5827 44.0792 31.9246L21.681 44.9996C21.1381 45.394 20.5044 45.6435 19.8394 45.7246C19.5579 45.7279 19.2815 45.6498 19.043 45.4996L18.4208 45.1496C17.8514 44.8077 17.502 44.191 17.5 43.5246V16.4746C17.502 15.8082 17.8514 15.1916 18.4208 14.8496L19.043 14.4996ZM37.4095 30L22.4774 21.2V21.3V38.8L37.4095 30Z" fill="black"/>
</svg>
