<svg width="24" height="24" viewBox="0 0 24 24" fill="none" xmlns="http://www.w3.org/2000/svg">
    <path fill-rule="evenodd" clip-rule="evenodd" d="M17.0046 7C17.0046 9.76142 14.7653 12 12.0031 12C9.24079 12 7.00154 9.76142 7.00154 7C7.00154 4.23858 9.24079 2 12.0031 2C14.7653 2 17.0046 4.23858 17.0046 7ZM15.004 7C15.004 5.34315 13.6604 4 12.0031 4C10.3457 4 9.00214 5.34315 9.00214 7C9.00214 8.65685 10.3457 10 12.0031 10C13.6604 10 15.004 8.65685 15.004 7ZM21.896 20.55L20.0055 16.76C19.1575 15.0683 17.4269 14.0001 15.5341 14H8.47198C6.5792 14.0001 4.8486 15.0683 4.00063 16.76L2.11006 20.55C1.95404 20.8595 1.96947 21.2277 2.15083 21.5231C2.3322 21.8185 2.65363 21.999 3.00033 22H21.0058C21.3525 21.999 21.6739 21.8185 21.8553 21.5231C22.0366 21.2277 22.0521 20.8595 21.896 20.55ZM5.79117 17.66L4.62082 20H19.3853L18.2149 17.66C17.7076 16.6441 16.67 16.0016 15.5341 16H8.47198C7.33614 16.0016 6.29851 16.6441 5.79117 17.66Z" fill="#828282"/>
</svg>
