<svg width="53" height="54" viewBox="0 0 53 54" fill="none" xmlns="http://www.w3.org/2000/svg">
    <rect width="53" height="54" rx="11" fill="#F2F2F2"/>
    <path d="M28.5001 32.725C28.4976 32.8945 28.5655 33.0574 28.6876 33.175L28.9376 33.425C29.0549 33.5433 29.2147 33.6099 29.3813 33.6099C29.548 33.6099 29.7077 33.5433 29.8251 33.425L37.0626 26.1875C37.1834 26.0741 37.252 25.9157 37.252 25.75C37.252 25.5843 37.1834 25.4259 37.0626 25.3125L29.8251 18.075C29.7077 17.9567 29.548 17.8901 29.3813 17.8901C29.2147 17.8901 29.0549 17.9567 28.9376 18.075L28.6876 18.325C28.5655 18.4426 28.4976 18.6055 28.5001 18.775V22C21.1807 22.1302 15.1926 27.8679 14.7501 35.175C14.7485 35.3261 14.8018 35.4727 14.9001 35.5875C15.0072 35.6916 15.1507 35.7499 15.3001 35.75H15.4251C15.726 35.7489 15.9834 35.5335 16.0376 35.2375C16.6251 32 22.6001 29.5 28.5001 29.5V32.725Z" fill="#0E52E1"/>
</svg>
