<svg width="22" height="22" viewBox="0 0 20 20" fill="none" xmlns="http://www.w3.org/2000/svg">
    <path fill-rule="evenodd" clip-rule="evenodd" d="M1.66669 9.99984C1.66669 5.39746 5.39765 1.6665 10 1.6665C12.2102 1.6665 14.3298 2.54448 15.8926 4.10728C17.4554 5.67008 18.3334 7.7897 18.3334 9.99984C18.3334 14.6022 14.6024 18.3332 10 18.3332C5.39765 18.3332 1.66669 14.6022 1.66669 9.99984ZM12.7013 11.8415C12.7013 11.731 12.6556 11.6254 12.575 11.5498L11.0334 9.99979L12.575 8.44979C12.6556 8.37418 12.7013 8.26861 12.7013 8.15812C12.7013 8.04763 12.6556 7.94206 12.575 7.86645L12.1334 7.42479C12.0577 7.34422 11.9522 7.29852 11.8417 7.29852C11.7312 7.29852 11.6256 7.34422 11.55 7.42479L10 8.96645L8.45002 7.42479C8.37441 7.34422 8.26884 7.29852 8.15835 7.29852C8.04787 7.29852 7.9423 7.34422 7.86669 7.42479L7.42502 7.86645C7.34446 7.94206 7.29875 8.04763 7.29875 8.15812C7.29875 8.26861 7.34446 8.37418 7.42502 8.44979L8.96669 9.99979L7.42502 11.5498C7.34446 11.6254 7.29875 11.731 7.29875 11.8415C7.29875 11.9519 7.34446 12.0575 7.42502 12.1331L7.86669 12.5748C7.9423 12.6553 8.04787 12.7011 8.15835 12.7011C8.26884 12.7011 8.37441 12.6553 8.45002 12.5748L10 11.0331L11.55 12.5748C11.6256 12.6553 11.7312 12.7011 11.8417 12.7011C11.9522 12.7011 12.0577 12.6553 12.1334 12.5748L12.575 12.1331C12.6556 12.0575 12.7013 11.9519 12.7013 11.8415Z" fill="#828282" fill-opacity="0.75"/>
</svg>
