<svg width="18" height="16" viewBox="0 0 18 16" fill="none" xmlns="http://www.w3.org/2000/svg">
<path d="M13.9321 9.9335C13.7163 10.1427 13.6171 10.4452 13.6663 10.7418L14.4071 14.8418C14.4696 15.1893 14.3229 15.541 14.0321 15.7418C13.7471 15.9502 13.3679 15.9752 13.0571 15.8085L9.36628 13.8835C9.23794 13.8152 9.09544 13.7785 8.94961 13.7743H8.72378C8.64544 13.786 8.56878 13.811 8.49878 13.8493L4.80711 15.7835C4.62461 15.8752 4.41794 15.9077 4.21545 15.8752C3.72211 15.7818 3.39294 15.3118 3.47378 14.816L4.21545 10.716C4.26461 10.4168 4.16544 10.1127 3.94961 9.90016L0.940445 6.9835C0.688778 6.73933 0.601278 6.37266 0.716278 6.04183C0.827945 5.71183 1.11294 5.471 1.45711 5.41683L5.59878 4.816C5.91378 4.7835 6.19044 4.59183 6.33211 4.3085L8.15711 0.566829C8.20044 0.483496 8.25628 0.406829 8.32378 0.341829L8.39878 0.283496C8.43794 0.240163 8.48294 0.204329 8.53294 0.175163L8.62378 0.141829L8.76544 0.0834961H9.11628C9.42961 0.115996 9.70544 0.303496 9.84961 0.583496L11.6988 4.3085C11.8321 4.581 12.0913 4.77016 12.3904 4.816L16.5321 5.41683C16.8821 5.46683 17.1746 5.7085 17.2904 6.04183C17.3996 6.376 17.3054 6.74266 17.0488 6.9835L13.9321 9.9335Z" fill="#E7E7E7"/>
</svg>
