<svg width="20" height="20" viewBox="0 0 20 20" fill="none" xmlns="http://www.w3.org/2000/svg">
    <path d="M14.9321 11.9335C14.7163 12.1427 14.6171 12.4452 14.6663 12.7418L15.4071 16.8418C15.4696 17.1893 15.3229 17.541 15.0321 17.7418C14.7471 17.9502 14.3679 17.9752 14.0571 17.8085L10.3663 15.8835C10.2379 15.8152 10.0954 15.7785 9.94961 15.7743H9.72378C9.64544 15.786 9.56878 15.811 9.49878 15.8493L5.80711 17.7835C5.62461 17.8752 5.41794 17.9077 5.21545 17.8752C4.72211 17.7818 4.39294 17.3118 4.47378 16.816L5.21545 12.716C5.26461 12.4168 5.16544 12.1127 4.94961 11.9002L1.94045 8.9835C1.68878 8.73933 1.60128 8.37266 1.71628 8.04183C1.82795 7.71183 2.11294 7.471 2.45711 7.41683L6.59878 6.816C6.91378 6.7835 7.19044 6.59183 7.33211 6.3085L9.15711 2.56683C9.20044 2.4835 9.25628 2.40683 9.32378 2.34183L9.39878 2.2835C9.43794 2.24016 9.48294 2.20433 9.53294 2.17516L9.62378 2.14183L9.76544 2.0835H10.1163C10.4296 2.116 10.7054 2.3035 10.8496 2.5835L12.6988 6.3085C12.8321 6.581 13.0913 6.77016 13.3904 6.816L17.5321 7.41683C17.8821 7.46683 18.1746 7.7085 18.2904 8.04183C18.3996 8.376 18.3054 8.74266 18.0488 8.9835L14.9321 11.9335Z" fill="#F4D041"/>
</svg>
