<svg width="20" height="20" viewBox="0 0 20 20" fill="none" xmlns="http://www.w3.org/2000/svg">
    <path fill-rule="evenodd" clip-rule="evenodd" d="M1.66669 10.0001C1.66669 5.39771 5.39765 1.66675 10 1.66675C12.2102 1.66675 14.3298 2.54472 15.8926 4.10752C17.4554 5.67033 18.3334 7.78994 18.3334 10.0001C18.3334 14.6025 14.6024 18.3334 10 18.3334C5.39765 18.3334 1.66669 14.6025 1.66669 10.0001ZM8.94169 12.7917L13.625 8.1084C13.7785 7.94744 13.7785 7.69435 13.625 7.5334L13.1834 7.09173C13.0213 6.93292 12.762 6.93292 12.6 7.09173L8.65002 11.0417L7.40002 9.80006C7.32441 9.7195 7.21884 9.6738 7.10835 9.6738C6.99787 9.6738 6.8923 9.7195 6.81669 9.80006L6.37502 10.2417C6.29614 10.32 6.25177 10.4265 6.25177 10.5376C6.25177 10.6487 6.29614 10.7552 6.37502 10.8334L8.35835 12.7917C8.43396 12.8723 8.53953 12.918 8.65002 12.918C8.76051 12.918 8.86608 12.8723 8.94169 12.7917Z" fill="#0E52E1"/>
</svg>
