<svg width="18" height="18" viewBox="0 0 18 18" fill="none" xmlns="http://www.w3.org/2000/svg">
    <path fill-rule="evenodd" clip-rule="evenodd" d="M6.16955 6.5333H12.1734C13.9415 6.5333 15.375 7.93549 15.375 9.66494V13.3684C15.375 15.0978 13.9415 16.5 12.1734 16.5H5.82584C4.05852 16.5 2.625 15.0978 2.625 13.3684V9.66494C2.625 8.24262 3.60049 7.05511 4.92808 6.67344L4.84501 6.68313V5.54035C4.86025 3.3122 6.71293 1.5 8.984 1.5C10.7597 1.5 12.3289 2.59656 12.9081 4.2209C12.969 4.3849 12.9538 4.56381 12.8776 4.72036C12.8014 4.8769 12.665 4.99617 12.4965 5.0491C12.1536 5.16763 11.7725 4.98946 11.643 4.64656C11.2543 3.54254 10.1881 2.80454 8.99924 2.80454C7.44378 2.80454 6.18707 4.02783 6.17869 5.52544V6.53181L6.16955 6.5333ZM8.9962 12.9964C9.36963 12.9964 9.66685 12.7056 9.66685 12.3404V10.6855C9.66685 10.3277 9.36963 10.0369 8.9962 10.0369C8.63039 10.0369 8.33317 10.3277 8.33317 10.6855V12.3404C8.33317 12.7056 8.63039 12.9964 8.9962 12.9964Z" fill="#0E52E1"/>
</svg>
