<svg width="20" height="20" viewBox="0 0 20 20" fill="none" xmlns="http://www.w3.org/2000/svg">
    <path fill-rule="evenodd" clip-rule="evenodd" d="M1.66669 10.0001C1.66669 5.39771 5.39765 1.66675 10 1.66675C12.2102 1.66675 14.3298 2.54472 15.8926 4.10752C17.4554 5.67033 18.3334 7.78994 18.3334 10.0001C18.3334 14.6025 14.6024 18.3334 10 18.3334C5.39765 18.3334 1.66669 14.6025 1.66669 10.0001ZM3.33335 10.0001C3.33335 13.682 6.31812 16.6667 10 16.6667C11.7681 16.6667 13.4638 15.9644 14.7141 14.7141C15.9643 13.4639 16.6667 11.7682 16.6667 10.0001C16.6667 6.31818 13.6819 3.33341 10 3.33341C6.31812 3.33341 3.33335 6.31818 3.33335 10.0001Z" fill="#828282" fill-opacity="0.5"/>
</svg>
